<svg width="154" height="850" viewBox="0 0 154 850" fill="none" xmlns="http://www.w3.org/2000/svg">
<path fill-rule="evenodd" clip-rule="evenodd" d="M130.555 87.8643C130.115 88.0005 129.754 88.1128 129.287 88.2574C129.401 88.0134 129.476 87.8524 129.571 87.6482C129.259 87.1796 128.908 86.7602 128.264 86.8531C128.214 86.6633 128.183 86.541 128.138 86.3711H127.018C126.907 86.2593 126.81 86.2061 126.784 86.1296C126.613 85.6127 126.577 84.9985 126.265 84.593C125.865 84.0717 126.064 83.5604 126.046 83.0555C126.03 82.6455 126.196 82.2256 126.297 81.8142C126.659 80.3433 127.218 78.9444 127.931 77.6141C128.369 76.7961 128.861 75.9995 129.4 75.2437C129.926 74.5053 130.543 73.8309 131.137 73.1059C130.976 73.0025 130.799 72.8823 130.615 72.7735C128.838 71.7219 127.281 70.3981 125.837 68.9302C125.156 68.2374 125.152 67.3077 124.953 66.452C124.873 66.1096 124.94 65.7324 124.94 65.3711C125.304 64.6764 126.038 64.6178 126.75 64.3345C126.99 64.7569 127.237 65.1912 127.515 65.6797C127.564 65.6439 127.648 65.5818 127.8 65.47C127.893 65.5624 128.056 65.6514 128.102 65.7821C128.385 66.5876 129.043 66.9976 129.743 67.3464C131.165 68.0575 132.601 68.7408 134.128 69.4828C134.486 69.1051 134.843 68.5257 135.362 68.2359C135.84 67.9686 135.865 67.2038 136.61 67.2774C136.504 67.1467 136.43 67.0557 136.319 66.9206C136.548 66.7605 136.78 66.5985 137.102 66.3729C137.204 66.1483 137.36 65.8059 137.512 65.4705C137.742 65.4571 137.956 65.4447 138.265 65.4268C138.134 65.2578 138.065 65.1699 137.959 65.0327C138.534 64.9487 138.573 64.3529 138.935 64.0329C139.317 63.6945 139.588 63.2298 139.951 62.7647C140.032 62.8238 140.116 62.8855 140.276 63.0032C140.346 62.8373 140.412 62.6807 140.495 62.4844C140.593 62.5634 140.684 62.636 140.847 62.7682C141.024 61.8165 141.564 61.0533 142.137 60.367C142.728 59.6594 143.259 58.8469 144.226 58.3733C144.347 58.4732 144.51 58.6069 144.694 58.7579C144.312 59.4919 143.941 60.2194 143.158 60.6025V61.6864C143.344 61.6411 143.532 61.6496 143.571 61.577C143.728 61.2843 143.839 60.9668 143.901 60.8172C144.545 60.2865 145.071 59.8532 145.735 59.3065C145.773 59.8129 145.797 60.1434 145.821 60.4604C145.619 60.5434 145.465 60.6065 145.303 60.6731C145.344 60.7312 145.396 60.8436 145.424 60.8376C145.753 60.77 146.079 60.6845 146.479 60.5856C146.592 60.7854 146.73 61.0284 146.869 61.2729C146.795 61.3559 146.706 61.4543 146.61 61.5606C146.667 61.9532 147.139 62.2996 146.773 62.7493C146.667 62.6534 146.573 62.5679 146.476 62.48C146.432 62.5639 146.345 62.6529 146.362 62.709C146.412 62.8681 146.505 63.0137 146.609 63.2194C146.535 63.9076 145.985 64.3648 145.474 64.8295C144.991 65.2692 144.46 65.6554 143.839 66.1538C144.094 66.3004 144.317 66.4286 144.567 66.5727C144.411 66.8724 144.316 67.0532 144.217 67.2431C144.274 67.3072 144.361 67.4016 144.495 67.5497C144.2 67.5969 143.952 67.6371 143.596 67.6953C143.692 67.9423 143.775 68.1525 143.871 68.3965H142.969C142.801 68.7398 142.655 69.0395 142.516 69.3247C142.645 69.4639 142.736 69.5613 142.866 69.7014C142.589 69.7526 142.341 69.7988 141.981 69.8664C142.068 70.097 142.148 70.3047 142.242 70.5517C142.01 70.5859 141.761 70.6227 141.436 70.6704C141.531 70.9278 141.609 71.1366 141.737 71.4824C141.384 71.3453 141.127 71.2454 140.817 71.1251C140.671 71.4034 140.522 71.6877 140.377 71.9639C140.429 72.0623 140.449 72.1702 140.51 72.2035C140.618 72.2621 140.764 72.2512 140.87 72.3108C141.285 72.5424 141.382 73.0791 141.79 73.3091C142.23 73.5576 142.421 73.984 142.702 74.3636C142.954 74.7055 143.141 74.9938 143.113 75.4266C143.103 75.5747 143.235 75.7317 143.317 75.9171C143.246 76.0388 143.143 76.2122 143.004 76.4498C142.637 76.492 142.371 76.9825 141.703 76.7236C140.535 76.2709 139.32 75.8654 138.053 75.7128C137.982 75.7044 137.924 75.5921 137.809 75.4768C137.438 75.8947 137.07 76.3096 136.608 76.8309C136.602 76.8801 136.577 77.0933 136.55 77.3234C136.29 77.3641 136.042 77.4034 135.656 77.464C135.91 77.8218 136.101 78.0892 136.385 78.4877C136.064 78.3938 135.85 78.3317 135.579 78.2522C135.523 78.3187 135.409 78.4534 135.285 78.5995C135.442 79.0333 135.316 79.2987 134.808 79.5874C134.656 80.134 134.51 80.6593 134.388 81.0976C134.158 81.1821 134.03 81.2293 133.865 81.2904L134.161 81.5871C133.756 81.8972 133.292 82.1481 132.978 82.5248C132.694 82.8642 132.576 83.3413 132.355 83.8223C132.376 83.8551 132.465 83.9883 132.606 84.1995C132.308 84.5071 132.015 84.8092 131.732 85.0994C131.842 85.2366 131.923 85.3374 132.063 85.5124C131.864 85.74 131.668 85.9636 131.45 86.2125V87.0027C131.13 87.3108 130.805 87.6233 130.555 87.8643" fill="black"/>
<path fill-rule="evenodd" clip-rule="evenodd" d="M163.883 93.265C164.509 94.0223 164.51 94.0238 165.269 93.6039C165.291 93.8464 165.283 94.0576 165.336 94.2524C165.373 94.3905 165.49 94.5073 165.566 94.6246C165.469 94.7215 165.405 94.7851 165.324 94.8666C165.513 94.9551 165.694 95.04 165.99 95.1787C165.682 95.6175 165.391 96.0309 165.101 96.4449C165.475 97.1177 164.684 97.237 164.57 97.5973C164.394 98.1538 163.718 98.2736 163.698 98.8684C163.676 99.5621 162.964 99.6476 162.655 100.052C162.387 100.403 161.91 100.633 161.848 101.081C161.955 101.264 162.039 101.408 162.178 101.646C161.777 101.873 161.428 102.071 161.077 102.269L160.232 102.669C159.975 102.972 159.718 103.275 159.375 103.68V103.946C158.51 104.581 157.702 105.176 156.763 105.866C157.032 106.002 157.194 106.085 157.464 106.223C157.091 106.744 156.714 107.272 156.308 107.839C157.349 108.194 158.329 108.528 159.339 108.873C159.239 109.074 159.155 109.243 159.04 109.473C159.491 109.634 159.912 109.784 160.392 109.955V110.544C160.694 110.822 160.959 111.065 161.233 111.318C161.25 111.636 161.266 111.94 161.281 112.231L161.773 112.722L160.526 113.76C160.232 114.087 159.926 114.026 159.597 113.808C159.497 113.742 159.357 113.704 159.236 113.706C157.836 113.737 156.572 113.204 155.299 112.739C154.359 112.396 153.455 111.957 152.481 111.538C152.216 111.803 151.802 112.003 151.748 112.55C151.186 112.683 150.609 112.82 150.069 112.948C149.791 112.666 149.569 112.442 149.346 112.216C149.431 112.123 149.518 112.026 149.647 111.884C149.513 111.604 149.369 111.304 149.282 111.125C148.863 111.189 148.492 111.247 148.131 111.303C147.93 110.907 147.751 110.55 147.566 110.185C147.476 110.275 147.413 110.338 147.389 110.362C147.09 110.057 146.788 109.75 146.37 109.327C146.5 108.387 145.898 107.307 146.06 106.14C146.094 105.895 145.906 105.541 145.709 105.356C144.91 104.606 144.875 103.522 144.5 102.599C144.356 102.247 144.203 101.799 144.191 101.373C144.17 100.697 144.091 100.002 144.206 99.3455C144.389 98.3064 144.586 97.1982 145.796 96.7892C146.196 96.6541 146.636 96.6392 147.164 96.5517V98.6652C147.622 98.37 147.929 98.1722 148.388 97.877C148.451 98.0639 148.528 98.2865 148.603 98.5091C148.671 98.4575 148.739 98.4058 148.808 98.3541V99.6009C149.041 99.4826 149.209 99.3972 149.368 99.3162C149.943 99.8191 149.928 100.463 149.849 101.125C150.041 101.194 150.197 101.249 150.448 101.338C150.342 101.628 150.235 101.916 150.106 102.264C150.262 102.236 150.341 102.245 150.384 102.209C150.49 102.126 150.562 101.977 150.678 101.933C151.835 101.493 152.417 100.263 153.579 99.835C153.813 98.9936 154.7 98.8143 155.218 98.2473C155.757 97.6579 156.518 97.2743 157.168 96.7828C157.798 96.3067 158.153 95.5047 158.974 95.2527C159.514 94.2703 160.291 93.5259 161.257 92.9703C161.223 92.3049 162.139 92.2224 162.117 91.5208H163.339C163.427 91.6077 163.555 91.7354 163.682 91.8631C163.097 92.1543 162.884 92.7194 162.51 93.3167C163.319 93.4841 163.785 92.4987 164.548 92.9534C164.327 93.0568 164.147 93.1413 163.883 93.265" fill="black"/>
<path fill-rule="evenodd" clip-rule="evenodd" d="M166.618 52.3491C166.153 52.4604 165.743 52.5588 165.165 52.6975C164.571 52.2587 163.861 51.712 163.128 51.1992C162.254 50.5875 161.495 49.8083 160.497 49.3774C160.266 49.2776 160.023 49.2055 159.702 49.0902C159.313 48.5073 159.268 47.425 158.126 47.5443C157.61 47.0722 157.547 46.2522 156.792 46.1727C156.545 45.7518 156.389 45.2703 156.065 44.9696C154.583 43.5956 153.511 41.9453 152.589 39.9541C152.509 39.3394 152.509 38.5199 152.376 37.698C152.168 36.4035 152.857 35.2918 153.978 34.5743C154.288 34.3765 154.447 33.9417 154.962 33.9879C155.32 34.0202 155.697 33.8299 156.172 33.7131C156.313 33.8383 156.499 34.0038 156.734 34.2125C156.352 34.854 155.63 35.259 155.575 36.1207C156.425 36.4045 156.806 35.4598 157.662 35.351C157.767 35.4444 157.952 35.6094 158.126 35.7654C157.823 36.2201 157.618 36.5262 157.242 37.0903C157.827 36.9054 158.243 36.9024 158.397 36.7002C158.785 36.1883 159.412 35.9831 159.777 35.4136C160.116 34.8834 160.673 34.4883 161.242 34.1186C162.046 33.5963 162.698 32.8454 163.452 32.2382C164.561 31.3457 165.6 30.3677 166.835 29.6258C167.324 29.3331 167.685 28.8233 168.09 28.3984C168.459 28.0118 169.045 27.8428 169.161 27.2664H170.983V28.4421C170.933 28.4928 170.758 28.6677 170.547 28.8789C170.789 28.8357 171.03 28.8014 171.266 28.7477C171.507 28.6931 171.743 28.6195 172.108 28.5196C172.052 29.3947 172.095 30.1694 172.727 30.734C172.594 30.9134 172.518 31.0157 172.364 31.2229C172.557 31.3293 172.781 31.4515 173.197 31.6796C172.768 31.7969 172.623 31.8367 172.424 31.8913C172.5 32.0643 172.601 32.2258 172.638 32.4012C172.675 32.5741 172.646 32.7605 172.646 32.9379C172.144 33.6276 171.641 34.3174 171.089 35.0747C170.987 35.0861 170.774 35.1095 170.46 35.1438C170.555 35.2749 170.614 35.3569 170.691 35.4633C170.61 35.6571 170.52 35.8723 170.419 36.1118C169.226 36.0541 169.218 37.2831 168.48 37.7616C168.636 37.9668 168.714 38.0687 168.749 38.1154C168.259 38.6064 167.764 39.1013 167.264 39.6008C167.304 39.6375 167.24 39.5794 167.268 39.6042C167.045 39.8264 166.816 40.056 166.586 40.286C166.512 40.2279 166.438 40.1702 166.363 40.1121V40.8257C166.205 40.696 166.114 40.6205 165.909 40.452C165.954 40.7561 165.984 40.9584 166.027 41.2426C165.688 41.6809 165.281 42.2082 164.84 42.7797C164.642 42.6345 164.507 42.5347 164.387 42.4462C163.899 43.0167 163.398 43.6016 162.893 44.1919C163.088 44.2888 163.267 44.3778 163.528 44.5075C163.285 44.8161 163.076 45.0815 162.879 45.3304C162.911 45.4402 162.911 45.5416 162.961 45.5983C163.787 46.5236 164.766 47.3509 165.409 48.3876C166.134 49.5549 167.04 50.7599 166.618 52.3491" fill="black"/>
<path fill-rule="evenodd" clip-rule="evenodd" d="M106.166 17.4441C105.828 17.4858 105.625 17.5111 105.369 17.543C105.525 17.7159 105.614 17.8138 105.756 17.9713C105.419 18.597 104.782 18.9721 104.349 19.5193L104.561 19.731C104.217 20.0013 103.872 20.2716 103.579 20.5017C103.417 20.9286 103.763 21.4101 103.193 21.6745C103.697 22.0129 104.159 22.315 104.613 22.6281C106.036 23.611 107.557 24.4543 108.73 25.7781C109.402 26.536 110.034 27.2685 110.046 28.3567C110.048 28.5401 110.235 28.721 110.383 28.9898C109.974 29.2487 109.591 29.4907 109.111 29.7944C106.406 28.2096 103.61 26.7974 101.045 24.7276C100.861 24.8325 100.46 24.9209 100.386 25.1272C100.092 25.9441 99.5167 26.5176 98.9309 27.1025C98.8593 27.174 98.8861 27.3435 98.8667 27.4687C98.6158 27.4965 98.4026 27.5194 98.0771 27.5552C98.1397 27.7694 98.1929 27.9512 98.2858 28.2698C97.7641 28.7066 97.3745 29.3566 97.1692 30.1636C97.05 30.6322 96.6007 31.0163 96.1982 31.5823V34.5272C95.9418 34.5436 95.7281 34.557 95.4861 34.5724C95.4339 34.719 95.3783 34.876 95.3117 35.0644H94.3774C94.2313 34.641 94.0818 34.2066 93.9088 33.7062C93.6489 33.8205 93.3895 33.9343 93.0804 34.07C93.0168 33.8732 92.9666 33.7192 92.9165 33.5651C92.8399 33.5333 92.7555 33.4627 92.6864 33.4757C92.1129 33.5845 91.7203 33.0995 91.6498 32.7909C91.362 31.5346 90.5491 30.2923 91.3297 28.9436C91.3442 27.6079 92.1735 26.5886 92.6436 25.4268C92.7972 25.0477 93.4571 25.1142 93.2782 24.4593C93.2047 24.1899 93.6937 23.7631 93.9342 23.4127C94.1523 23.0952 94.3576 22.7657 94.6085 22.476C94.9032 22.1356 95.262 21.8504 95.5542 21.5085C95.7972 21.2232 95.9845 20.8908 96.2226 20.541C94.5757 19.3041 93.5684 17.5469 92.4141 15.9085C92.0438 14.3233 91.4043 12.7838 91.6537 10.9278C92.0349 10.49 92.5224 9.92942 93.0467 9.32764C93.6271 9.4469 94.2795 9.08712 94.8098 9.69189C94.4624 10.16 94.1175 10.6246 93.7692 11.0942C93.8651 11.1956 93.9541 11.291 94.042 11.3844C94.7775 11.5365 95.0468 10.4661 95.8151 10.7141C95.9294 10.9357 96.0432 11.1578 96.1624 11.3884C95.9259 11.54 95.6551 11.7139 95.3708 11.8958C95.5442 12.0697 95.672 12.1974 95.7997 12.3251C96.1833 11.9281 96.556 11.9231 97.0067 12.4663C96.966 12.7689 97.2005 13.2062 96.7478 13.5585C96.9357 13.649 97.1195 13.7374 97.3824 13.8632C97.1662 14.1539 96.9744 14.4113 96.7781 14.6751C96.961 14.7402 97.118 14.7954 97.4465 14.9122C97.1444 14.9937 97.0013 15.0319 96.7508 15.0995C96.7771 15.3197 96.7245 15.6208 96.8497 15.7893C97.3685 16.487 97.941 17.1444 98.5547 17.8903C98.8926 17.5872 99.152 17.3616 99.4029 17.1275C100.886 15.745 102.127 14.0873 103.966 13.1083C103.956 12.599 104.489 12.6347 104.719 12.3619C104.979 12.0533 105.267 11.7691 105.454 11.5698H106.364C105.952 12.1776 105.248 12.5209 105.477 13.3965C106.066 13.0457 106.642 12.7023 107.343 12.2844C107.281 12.6854 107.232 12.9945 107.177 13.3458C107.423 13.4696 107.788 13.6549 108.179 13.8527C108.078 14.0619 107.994 14.2364 107.896 14.4406C108.037 14.4704 108.16 14.4958 108.289 14.5226C108.303 14.5753 108.354 14.6652 108.329 14.6985C107.999 15.1438 107.558 15.5373 107.347 16.0308C107.084 16.65 106.503 16.9287 106.166 17.4441" fill="black"/>
<path fill-rule="evenodd" clip-rule="evenodd" d="M130.904 31.2772C131.984 29.9524 132.896 28.8512 133.789 27.7345C134.635 26.6771 135.358 25.5351 136.015 24.3648C135.931 24.261 135.85 24.1606 135.71 23.9887C135.94 23.7283 136.167 23.4699 136.408 23.196H137.301C137.635 23.53 137.903 24.0065 138.286 24.1283C138.752 24.2764 138.818 24.6496 139.007 24.9284C139.66 25.8939 140.114 26.8739 139.612 28.1321C139.303 28.9058 138.991 29.68 138.67 30.4503C138.573 30.6824 138.503 30.9254 138.38 31.2787L137.696 31.9635V32.8162C137.16 33.7867 136.714 34.5957 136.226 35.4803C136.901 35.9384 137.522 36.3802 138.162 36.7927C139.43 37.6101 140.479 38.6254 141.106 40.0202C141.24 40.3204 141.302 40.6538 141.442 41.1224C141.394 41.2293 141.276 41.4922 141.146 41.7804C140.867 41.9106 140.565 42.0512 140.329 42.1605C139.692 41.9404 139.129 41.7759 138.59 41.5518C138.051 41.3282 137.537 41.0449 137.011 40.788C136.922 40.0034 136.027 40.3204 135.659 39.7867C135.357 39.3484 134.685 39.166 134.096 38.8226C132.33 40.6245 130.774 42.5929 129.347 44.6661C129.237 44.8251 129.273 45.084 129.241 45.2962C128.619 45.7752 128.003 45.7022 127.386 45.2669V44.836C126.584 44.3555 125.832 43.9053 125.01 43.4123C124.616 42.9512 124.817 42.2266 124.56 41.6661C124.274 41.0419 124.516 40.4377 124.408 39.9785C125.304 37.9803 126.365 36.2301 127.884 34.7199V33.7976C127.006 33.1859 126.46 32.2323 125.908 31.2971C125.723 30.9835 125.694 30.574 125.609 30.2053C125.436 29.4549 125.178 28.7289 125.201 27.9318C125.245 26.4072 126.111 25.3194 127.567 24.7723C128.485 24.4274 129.376 24.6009 130.363 24.504C129.832 25.6037 128.559 25.5098 127.815 26.4316C129.098 26.3749 129.88 25.1664 131.188 25.397C131.138 25.7051 131.087 26.0137 131.033 26.3387C131.273 26.4231 131.626 26.5479 131.965 26.6681V28.389C131.616 28.9978 131.233 29.605 130.92 30.247C130.819 30.4533 130.904 30.7504 130.904 31.2772" fill="black"/>
<path fill-rule="evenodd" clip-rule="evenodd" d="M153.806 14.4071C153.298 15.0432 152.835 15.6246 152.323 16.2666V18.0054C151.846 18.1967 151.383 18.3836 150.859 18.5938C150.24 17.9925 149.989 17.1949 149.79 16.4411C149.525 16.54 149.29 16.6269 148.942 16.7561C148.669 16.363 148.336 16.0157 148.157 15.6022C147.62 14.3634 147.663 13.0405 147.722 11.7957C147.947 11.2829 148.148 10.8247 148.398 10.2527C148.023 10.1966 147.691 10.2488 147.554 10.1096C146.678 9.22459 145.814 8.32414 145.011 7.37351C144.579 6.86067 144.123 6.28075 143.95 5.65611C143.699 4.74175 143.693 3.7598 143.574 2.7386C143.987 2.15868 144.322 1.47937 144.846 1.01126C145.327 0.580916 146.012 0.378167 146.755 0C146.928 0.187344 147.096 0.368725 147.266 0.553088C147.167 0.648499 145.844 1.92314 145.844 1.92314C145.939 2.01904 146.035 2.11495 146.176 2.25558C146.782 1.81381 147.385 1.23588 148.37 1.61702C148.126 1.95196 147.935 2.21235 147.601 2.67003C148.053 2.49362 148.306 2.39572 148.655 2.25956C148.82 2.50803 148.997 2.77488 149.212 3.09888C148.838 3.47307 148.545 3.76676 148.19 4.12157C148.419 4.16828 148.542 4.19412 148.747 4.23636C148.44 4.75417 148.613 5.47025 147.822 5.73462C148.607 6.70116 149.482 7.23387 150.369 7.82323C153.357 5.34602 156.279 2.92247 159.241 0.466621H160.548C160.319 0.925788 160.138 1.29203 159.953 1.66274C160.346 1.96239 160.656 1.62597 161.004 1.4749C162.009 2.41262 162.246 3.58339 162.039 4.88934C161.621 5.42503 161.193 5.97514 160.755 6.53667C160.783 6.56251 160.848 6.62314 161.027 6.78862C160.786 6.81943 160.554 6.84924 160.321 6.87906C160.412 6.97646 160.503 7.07436 160.594 7.17225H160.09C159.161 8.91997 157.591 10.1091 156.442 11.7013C158.017 12.5789 159.78 13.2319 161.446 14.2252C161.497 14.4757 161.554 14.7599 161.621 15.0959C161.826 14.8792 161.98 14.7167 162.128 14.5602C162.799 14.6506 162.785 15.4219 163.348 15.7041C163.841 15.9516 164.128 16.6085 164.512 17.0906V18.6996C164.382 18.8298 164.254 18.9575 164.075 19.1364C162.68 18.9874 161.526 18.1923 160.255 17.5492C160.229 17.5726 160.135 17.6581 160.094 17.6953C159.205 17.4757 158.675 16.5216 157.649 16.6642C157.171 16.0495 156.385 16.0018 155.771 15.6395C155.152 15.2738 154.551 14.8767 153.806 14.4071" fill="black"/>
<path fill-rule="evenodd" clip-rule="evenodd" d="M111.768 49.9784C111.921 50.1315 112.049 50.2592 112.23 50.4401C111.4 51.1502 110.574 51.8558 109.748 52.562C109.767 52.6097 109.786 52.6574 109.804 52.7046C109.98 52.6534 110.194 52.6489 110.322 52.5416C110.56 52.3418 110.748 52.0829 111.076 52.0183C111.655 51.6918 112.234 51.3648 112.797 51.0468C113.288 51.4439 112.929 51.7574 112.718 52.239C113.04 52.1172 113.248 52.0382 113.472 51.9527C113.57 52.0506 113.697 52.1783 113.826 52.3065C113.826 52.8477 113.826 53.3894 113.826 53.9375C113.668 54.0915 113.507 54.2495 113.337 54.4155C113.362 54.4781 113.368 54.5646 113.414 54.5984C113.722 54.8295 114.03 55.0635 114.355 55.2693C114.704 55.4899 115.193 55.5535 115.207 56.1185C115.208 56.1836 115.318 56.2572 115.391 56.3083C115.67 56.5046 115.996 56.6532 116.223 56.8962C116.45 57.1382 116.579 57.4717 116.808 57.8633C116.808 58.0923 116.808 58.4536 116.807 58.8144C116.583 59.038 116.36 59.2616 116.173 59.4485C114.464 58.8377 112.775 58.2345 111.087 57.6312C110.711 57.8315 110.307 58.0466 109.903 58.2618C109.886 58.2345 109.869 58.2071 109.852 58.1798C109.501 58.5306 109.15 58.882 108.701 59.3307C108.694 59.4375 108.681 59.6472 108.665 59.9146C107.953 60.5989 107.209 61.316 106.608 61.8944C106.306 62.8301 106.459 63.7912 105.212 63.9885C104.954 63.576 104.028 63.5099 104.239 62.5484C103.983 62.4743 103.668 62.3824 103.324 62.283C103.247 62.3352 103.107 62.4286 102.998 62.5011C102.65 62.1324 102.345 61.8094 101.902 61.3408C101.803 60.4955 101.677 59.4137 101.543 58.2752C102.669 57.0582 103.778 55.8591 104.955 54.5865C104.495 54.2982 104.02 54.0572 103.614 53.7317C103.193 53.3948 102.839 52.9754 102.445 52.5813C102.554 52.23 102.665 51.8717 102.784 51.4846C102.563 51.4091 102.406 51.3549 102.21 51.2873V50.372C102.285 50.2959 102.381 50.2005 102.492 50.0892C102.88 50.0122 103.287 49.9312 103.79 49.8308C105.128 50.5822 106.592 51.4036 108.017 52.2022C109.445 51.659 110.37 50.4063 111.768 49.9784" fill="black"/>
<path fill-rule="evenodd" clip-rule="evenodd" d="M76.2941 609.208C76.2496 609.325 76.2051 609.443 76.1606 609.561C76.6673 609.771 77.1739 609.98 77.6805 610.19C77.7334 610.05 77.7861 609.911 77.8394 609.772C77.324 609.583 76.8092 609.396 76.2941 609.208V609.208ZM179.589 677.704C179.678 677.603 179.767 677.501 179.856 677.399C179.412 676.955 178.973 676.506 178.516 676.076C178.478 676.04 178.286 676.099 178.231 676.167C178.162 676.253 178.099 676.464 178.14 676.499C178.611 676.914 179.103 677.306 179.589 677.704V677.704ZM185.684 661.205C185.619 661.281 185.553 661.359 185.487 661.435C186.153 662.004 186.819 662.573 187.484 663.142C187.565 663.048 187.645 662.953 187.726 662.858L185.684 661.205ZM174.79 777.31L174.837 777.243C174.276 776.563 173.719 775.882 173.156 775.204C173.067 775.096 172.966 774.99 172.851 774.915C172.814 774.891 172.709 774.97 172.636 775.002C172.712 775.129 172.767 775.278 172.868 775.381C173.503 776.03 174.148 776.668 174.79 777.31V777.31ZM146.606 669.043C146.55 669.113 146.495 669.183 146.438 669.253C147.26 669.918 148.081 670.583 148.903 671.248C148.961 671.175 149.019 671.102 149.078 671.03C148.254 670.367 147.43 669.706 146.606 669.043V669.043ZM109.998 591.761C110.046 591.633 110.095 591.504 110.143 591.376C109.265 591.11 108.388 590.844 107.51 590.578C107.466 590.727 107.422 590.876 107.379 591.025C108.252 591.271 109.125 591.516 109.998 591.761V591.761ZM200.815 633.146C200.759 633.285 200.703 633.425 200.647 633.564C201.181 633.913 201.704 634.281 202.259 634.596C202.373 634.66 202.622 634.555 202.766 634.461C202.812 634.431 202.764 634.097 202.679 634.052C202.069 633.729 201.439 633.443 200.815 633.146V633.146ZM158.501 734.627C158.577 734.528 158.653 734.429 158.728 734.33C157.539 733.365 156.349 732.4 155.16 731.434C155.092 731.516 155.024 731.598 154.956 731.68C156.138 732.662 157.319 733.644 158.501 734.627V734.627ZM181.156 749.391C181.058 749.487 180.96 749.583 180.861 749.679L183.239 752.352C183.347 752.25 183.454 752.147 183.561 752.046C182.76 751.161 181.958 750.276 181.156 749.391V749.391ZM187.874 714.61C187.942 714.508 188.01 714.407 188.078 714.306C187.088 713.493 186.099 712.68 185.109 711.868C185.015 711.993 184.92 712.118 184.826 712.243C185.842 713.032 186.858 713.821 187.874 714.61V714.61ZM210.486 641.319L210.717 641.095C209.989 640.478 209.273 639.845 208.52 639.26C208.411 639.175 208.126 639.316 207.922 639.352C208.001 639.511 208.038 639.729 208.165 639.816C208.927 640.333 209.71 640.821 210.486 641.319V641.319ZM180.965 650.422C181.008 650.353 181.051 650.285 181.093 650.218C179.753 649.33 178.412 648.443 177.071 647.555C176.998 647.672 176.924 647.788 176.851 647.905C178.222 648.743 179.593 649.582 180.965 650.422V650.422ZM119.827 602.143C119.855 602.029 119.883 601.915 119.911 601.802L113.776 598.926C113.724 599.037 113.673 599.147 113.622 599.256C115.691 600.218 117.759 601.181 119.827 602.143V602.143ZM92.1538 683.496C92.4985 682.687 92.0998 681.506 91.4993 681.284C91.3188 681.217 91.1919 681.014 91.029 680.886C90.8119 680.715 90.5839 680.557 90.3602 680.394C90.3579 680.679 90.2402 681.045 90.3736 681.235C90.9031 681.992 91.5111 682.694 92.1538 683.496V683.496ZM170.293 694.117C170.222 694.177 170.152 694.236 170.081 694.297L174.268 698.483C174.331 698.415 174.393 698.347 174.455 698.279L170.293 694.117ZM159.141 744.178C159.109 744.209 159.077 744.24 159.045 744.271L167.15 752.375C167.181 752.344 167.213 752.313 167.245 752.282L159.141 744.178ZM212.157 642.217L211.786 642.61C212.786 643.748 213.774 644.895 214.798 646.011C214.908 646.131 215.217 646.071 215.434 646.094C215.45 645.88 215.564 645.569 215.465 645.467C214.381 644.365 213.265 643.296 212.157 642.217V642.217ZM159.225 801.555C159.18 801.591 159.135 801.628 159.091 801.664C161.979 803.868 164.86 806.081 167.766 808.26C168.08 808.496 168.541 808.534 168.934 808.665C168.641 808.496 168.347 808.328 168.054 808.159C168.019 808.138 167.992 808.102 167.959 808.077C165.048 805.902 162.136 803.728 159.225 801.555V801.555ZM94.4369 605.62C93.3871 604.281 88.7956 602.489 87.8723 602.99C90.0273 603.854 92.0841 604.678 94.4369 605.62V605.62ZM94.1769 600.354C93.3972 599.858 92.2202 601.288 91.8297 599.656C91.6789 599.714 91.5298 599.775 91.377 599.828C91.3015 599.854 91.2151 599.888 91.1422 599.875C90.995 599.847 90.7461 599.725 90.7285 599.754C90.6323 599.917 90.4868 600.18 90.5532 600.286C90.7867 600.658 91.0323 601.106 91.3944 601.299C92.6574 601.97 93.0702 601.796 94.1769 600.354V600.354ZM212.877 758.021C213.002 757.857 213.128 757.692 213.253 757.529C210.862 755.597 208.471 753.665 206.08 751.734C206.02 751.804 205.961 751.874 205.901 751.943C208.226 753.97 210.552 755.995 212.877 758.021V758.021ZM175.919 693.438C176.03 693.335 176.141 693.232 176.252 693.128C173.097 689.76 169.941 686.392 166.786 683.024C169.856 686.472 172.537 690.281 175.919 693.438V693.438ZM178.001 668.794C177.919 668.873 177.837 668.951 177.754 669.03C177.966 669.28 178.169 669.536 178.39 669.779C179.909 671.445 181.415 673.123 182.967 674.758C183.246 675.052 183.923 675.425 184.062 675.314C184.642 674.854 184.457 674.316 183.917 673.856C181.939 672.176 179.973 670.483 178.001 668.794V668.794ZM86.9854 578.594C87.0191 578.756 87.0528 578.916 87.0864 579.077L101.209 575.777C100.066 575.762 98.924 575.896 97.7787 575.994C97.4651 576.021 96.7704 576.475 97.0929 575.524C96.9595 575.492 96.8113 575.408 96.6962 575.441C96.5438 575.484 96.2929 575.696 96.2972 575.703C96.7757 576.471 96.0525 576.297 95.7481 576.375C92.8291 577.125 89.9066 577.857 86.9854 578.594V578.594ZM188.991 763.469C189.057 763.401 189.124 763.333 189.19 763.265L174.889 749.757C174.752 749.906 174.615 750.055 174.478 750.204C179.315 754.625 184.153 759.048 188.991 763.469V763.469ZM242.362 710.65C242.44 710.598 242.517 710.546 242.595 710.493C242.516 709.287 242.167 708.02 242.421 706.888C242.836 705.039 242.634 703.258 242.454 701.446C242.441 701.316 242.275 701.201 242.18 701.079C242.058 701.211 241.848 701.33 241.827 701.478C241.425 704.284 240.581 707.1 241.923 709.885C242.05 710.149 242.215 710.395 242.362 710.65V710.65ZM213.516 765.219C208.15 760.998 203.09 757.017 198.03 753.037C202.598 757.66 207.455 761.914 213.516 765.219V765.219ZM184.255 732.271C184.484 732.427 184.641 732.566 184.824 732.653C185.11 732.787 185.413 732.886 185.709 733C185.625 732.667 185.64 732.248 185.44 732.013C182.975 729.124 180.483 726.259 177.979 723.405C177.85 723.258 177.484 723.15 177.341 723.229C177.19 723.312 177.043 723.735 177.124 723.848C177.653 724.593 178.21 725.324 178.823 726.003C179.502 726.754 180.301 727.4 180.956 728.17C182.108 729.525 183.19 730.94 184.255 732.271V732.271ZM203.327 750.727C203.094 750.393 202.907 750.013 202.622 749.731C199.216 746.368 195.802 743.013 192.366 739.681C192.131 739.453 191.707 739.42 191.371 739.297C191.495 739.617 191.541 740.004 191.754 740.246C195.191 744.169 199.086 747.601 203.327 750.727V750.727ZM161.922 660.07C161.78 660.243 161.639 660.416 161.497 660.589C162.959 661.839 164.428 663.081 165.879 664.343C166.539 664.916 167.196 665.499 167.796 666.133C168.601 666.984 169.28 667.965 170.137 668.755C171.64 670.141 173.278 671.38 174.779 672.769C175.502 673.437 176.016 674.326 176.677 675.069C176.835 675.246 177.203 675.238 177.474 675.314C177.494 675.136 177.596 674.901 177.52 674.789C177.064 674.127 176.623 673.438 176.07 672.862C175.176 671.929 174.185 671.091 173.26 670.186C172.14 669.091 171.072 667.942 169.936 666.866C168.722 665.716 167.479 664.593 166.201 663.514C164.803 662.333 163.351 661.215 161.922 660.07V660.07ZM167.533 650.114C167.861 650.552 168.106 651.127 168.54 651.424C172.675 654.245 176.864 656.987 180.989 659.821C182.92 661.148 184.743 662.633 186.628 664.027C186.78 664.138 187.042 664.098 187.254 664.129C187.225 663.932 187.253 663.696 187.153 663.547C186.992 663.307 186.767 663.099 186.534 662.924C183.821 660.889 181.113 658.846 178.379 656.839C176.876 655.736 175.371 654.624 173.784 653.65C171.772 652.415 169.676 651.317 167.533 650.114V650.114ZM130.434 590.151C136.502 594.588 142.569 599.024 148.637 603.461C143.609 597.589 137.268 593.529 130.434 590.151V590.151ZM167.045 656.14L166.776 656.504C167.029 656.735 167.256 657.007 167.541 657.19C168.841 658.029 170.212 658.767 171.458 659.678C176.156 663.117 180.814 666.612 185.497 670.071C185.65 670.185 185.921 670.14 186.137 670.17C186.093 669.948 186.127 669.64 185.992 669.52C184.505 668.189 183.084 666.757 181.466 665.605C177.967 663.115 174.375 660.756 170.796 658.381C169.583 657.577 168.297 656.884 167.045 656.14V656.14ZM214.582 772.34C205.736 766.547 197.746 759.664 189.765 752.77C197.184 760.377 205.126 767.319 214.582 772.34V772.34ZM167.803 659.326C168.197 659.829 168.322 660.118 168.541 660.247C170.55 661.436 171.674 663.633 174.026 664.571C175.785 665.272 177.176 666.923 178.687 668.201C179.006 668.471 179.136 668.965 179.353 669.356C180.797 668.457 180.359 671.063 181.732 670.65C182.016 670.564 182.618 671.789 183.185 672.281C183.503 672.556 184.05 672.567 184.494 672.698C184.472 672.334 184.59 671.854 184.402 671.627C183.854 670.965 183.215 670.366 182.556 669.808C178.032 665.977 173.21 662.567 167.803 659.326V659.326ZM192.441 767.969C192.513 767.889 192.584 767.809 192.656 767.73C191.793 766.974 190.905 766.247 190.072 765.46C184.788 760.467 179.532 755.444 174.219 750.482C173.625 749.926 172.734 749.688 171.98 749.303C171.901 749.445 171.821 749.588 171.742 749.731C178.138 756.382 185.125 762.362 192.441 767.969V767.969ZM230.58 650.349C214.95 636.057 198.566 622.75 180.152 612.091C198.333 623.053 214.584 636.535 230.58 650.349V650.349ZM231.577 662.512C231.654 662.435 231.732 662.359 231.808 662.282C231.195 661.195 230.586 660.105 229.962 659.025C229.91 658.937 229.716 658.941 229.636 658.857C228.548 657.714 227.468 656.565 226.39 655.414C226.034 655.034 225.686 654.647 225.34 654.257C224.71 653.546 224.134 652.776 223.444 652.129C222.551 651.29 221.574 650.538 220.622 649.763C219.795 649.09 218.966 648.417 218.108 647.783C217.688 647.472 217.21 647.231 216.739 646.996C216.589 646.921 216.287 646.891 216.217 646.975C216.118 647.094 216.091 647.384 216.171 647.52C216.315 647.766 216.554 647.96 216.765 648.162C218.045 649.387 219.343 650.591 220.603 651.834C221.414 652.635 222.147 653.515 222.958 654.316C224.135 655.479 225.35 656.604 226.549 657.743C228.224 659.333 229.901 660.922 231.577 662.512V662.512ZM164.173 763.763C164.127 763.802 164.081 763.841 164.035 763.881C164.574 764.674 165.033 765.535 165.663 766.247C168.733 769.716 172.267 772.697 175.747 775.736C177.071 776.893 178.213 778.256 179.497 779.463C180.274 780.193 181.119 781.246 182.016 781.336C182.841 781.418 183.288 781.75 183.769 782.17C184.22 782.566 184.464 783.208 184.932 783.568C185.489 783.998 186.187 784.246 186.825 784.569C186.989 784.653 187.158 784.727 187.324 784.804C187.319 784.572 187.41 784.247 187.29 784.123C186.8 783.616 186.255 783.16 185.714 782.703C182.096 779.645 178.424 776.648 174.868 773.52C171.244 770.334 167.733 767.021 164.173 763.763V763.763ZM181.439 748.218C184.071 752.758 202.414 769.293 209.024 771.368C208.674 771.089 208.452 770.907 208.225 770.731C203.716 767.241 199.104 763.874 194.727 760.225C190.675 756.847 186.587 753.471 183.238 749.329C182.883 748.89 182.229 748.693 181.439 748.218V748.218ZM157.413 744.13C166.122 754.528 177.061 765.208 188.694 774.052C178.201 764.015 167.155 753.448 157.413 744.13V744.13ZM187.384 780.8C182.281 776.274 177.145 771.931 172.257 767.325C167.33 762.683 162.65 757.781 157.862 752.993C157.776 753.079 157.69 753.166 157.604 753.253C158.922 757.01 182.428 778.781 187.384 780.8V780.8ZM242.335 695.298C242.413 695.98 242.491 696.661 242.598 697.6C243.025 696.688 243.308 696.083 243.556 695.554C243.141 695.469 242.717 695.382 242.292 695.295C243.468 694.76 243.774 694.128 242.889 692.739C242.687 693.642 242.502 694.468 242.335 695.298V695.298ZM85.3027 680.635C85.0865 680.368 84.8703 680.103 84.6555 679.836C84.4501 679.581 84.2656 679.305 84.0347 679.074C83.8496 678.889 83.4833 678.582 83.4137 678.632C82.7406 679.113 82.2883 679.365 81.8422 678.295C81.6469 677.827 80.8689 677.55 80.3041 677.302C79.5456 676.967 79.7275 676.699 80.2213 676.282C80.3747 676.152 80.361 675.824 80.4234 675.587C80.256 675.617 80.0669 675.713 79.9253 675.665C79.3065 675.458 78.5354 675.37 78.121 674.945C76.5577 673.342 75.2119 671.519 73.5982 669.973C71.1767 667.654 68.5044 665.595 66.1064 663.253C61.3086 658.568 55.5496 654.879 51.5785 649.344C49.9671 647.099 48.2266 644.887 47.0201 642.427C45.8551 640.05 45.2285 637.395 44.4998 634.825C43.3244 630.681 42.354 626.489 42.4463 622.139C42.5692 616.348 43.1148 610.639 45.6301 605.293C46.6459 603.135 47.4544 600.874 48.5683 598.772C49.3418 597.312 50.2562 595.776 51.4987 594.747C53.6213 592.988 55.0472 590.741 56.6122 588.582C61.7472 581.499 68.4674 576.457 76.4184 572.946C81.1848 570.84 86.0808 569.131 91.1415 567.89C97.921 566.227 104.787 565.67 111.729 566.409C115.368 566.796 118.984 567.294 122.42 568.757C126.135 570.339 130.032 571.51 133.689 573.208C139.701 575.998 145.568 579.127 150.34 583.847C153.803 587.273 157.03 590.936 160.407 594.449C162.352 596.474 164.405 598.392 166.376 600.391C170.528 604.6 175.703 607.377 180.677 610.37C191.271 616.747 201.448 623.682 210.96 631.586C216.708 636.363 222.645 640.931 228.185 645.937C235.66 652.694 241.678 660.588 244.786 670.35C246.429 675.511 246.898 680.861 246.895 686.269C246.894 691.159 247.227 696.057 247.034 700.936C246.887 704.615 247.571 708.15 248.09 711.719C248.453 714.222 249.09 716.689 249.688 719.151C251.218 725.447 254.518 730.979 257.289 736.745C259.389 741.116 261.249 745.603 263.183 750.052C263.295 750.311 263.102 750.7 263.066 751.03C263.056 751.116 263.069 751.239 263.123 751.292C263.95 752.111 264.138 753.088 264.131 754.239C264.126 755.001 264.743 755.751 264.824 756.533C265.193 760.107 265.745 763.695 265.697 767.271C265.656 770.378 265.106 773.524 264.401 776.564C263.683 779.656 262.676 782.711 261.475 785.65C260.257 788.632 258.738 791.503 257.188 794.333C254.114 799.946 250.045 804.811 245.13 808.862C240.114 812.996 234.419 816.08 228.314 818.334C225.9 819.226 223.419 819.955 220.933 820.623C219.621 820.975 218.224 821.001 216.878 821.239C215.949 821.403 215.049 821.735 214.12 821.894C208.825 822.801 203.543 822.473 198.267 821.684C197.323 821.543 196.366 821.494 195.416 821.386C195.125 821.353 194.832 821.288 194.556 821.192C192.099 820.338 189.65 819.458 187.184 818.629C186.81 818.503 186.294 818.737 185.96 818.572C184.885 818.04 183.889 817.328 182.598 817.475C182.701 816.521 181.749 816.987 181.734 816.958C180.981 815.559 179.459 816.358 178.452 815.773C178.055 815.542 177.526 815.453 177.241 815.135C176.927 814.784 175.714 815.11 176.327 814.023C175.875 813.915 175.421 813.813 174.97 813.697C174.439 813.56 173.911 813.409 173.449 813.017C173.703 813.056 173.958 813.095 174.212 813.134C166.808 808.624 159.537 803.976 153.94 797.173C153.831 797.295 153.722 797.417 153.613 797.539C156.998 800.736 160.382 803.934 163.767 807.131C163.762 807.148 163.756 807.164 163.751 807.18C162.27 805.98 160.741 804.834 159.316 803.57C152.972 797.939 148.23 791.088 144.583 783.501C141.986 778.097 139.751 772.52 137.331 767.03C136.085 764.203 134.75 761.415 133.531 758.577C132.996 757.33 132.735 755.965 132.197 754.72C131.469 753.036 130.578 751.422 129.788 749.765C129.125 748.375 128.259 747.012 127.983 745.543C127.864 744.912 127.579 744.681 127.333 744.261C127.186 744.011 127.357 743.585 127.34 743.241C127.332 743.076 127.208 742.77 127.155 742.774C126.231 742.848 126.201 742.104 125.901 741.531C124.565 738.977 123.211 736.431 121.795 733.921C120.026 730.786 118.283 727.632 116.359 724.593C114.199 721.179 111.907 717.844 109.568 714.548C107.283 711.331 104.887 708.19 102.501 705.046C100.544 702.469 98.5022 699.956 96.5529 697.375C95.7651 696.332 95.1587 695.153 94.395 694.09C94.0781 693.647 93.3975 693.425 93.1755 692.962C92.6051 691.775 91.3371 691.074 91.0735 689.637C90.981 689.135 90.0407 688.84 89.6554 688.325C89.2502 687.783 89.0468 687.089 88.7492 686.465C88.7047 686.372 88.6409 686.241 88.5605 686.218C87.4122 685.899 87.1067 685.158 87.5316 684.43C87.0279 683.99 86.5795 683.634 86.1753 683.233C85.8011 682.862 85.5323 682.361 85.1137 682.064C84.1858 681.405 84.7209 681.04 85.3187 680.643C85.2743 680.976 85.0689 681.502 85.198 681.603C85.6621 681.97 86.2348 682.201 86.778 682.46C86.8434 682.491 87.0606 682.384 87.0658 682.328C87.0796 682.18 87.0681 681.959 86.9736 681.884C86.4317 681.448 85.8626 681.047 85.3027 680.635V680.635Z" fill="#3734A9"/>
</svg>
