<svg width="57" height="57" viewBox="0 0 57 57" fill="none" xmlns="http://www.w3.org/2000/svg">
<circle cx="28.5" cy="28.5" r="28.5" fill="black"/>
<path d="M37.7887 18.4679L37.3781 21.6495C36.3746 21.581 35.5992 21.7635 35.0518 22.1968C34.5044 22.6302 34.1395 23.2346 33.9571 24.01C33.7746 24.7855 33.7404 25.6635 33.8544 26.6442H37.7887V34.889H30.2281V25.96C30.2281 23.2688 30.8667 21.2389 32.1439 19.8705C33.4439 18.4793 35.3255 18.0117 37.7887 18.4679ZM27.2517 18.4679L26.8412 21.6495C25.8377 21.581 25.0623 21.7635 24.5149 22.1968C23.9675 22.6302 23.6026 23.2346 23.4201 24.01C23.2377 24.7855 23.2035 25.6635 23.3175 26.6442H27.2517V34.889H19.6912V25.96C19.6912 23.2688 20.3298 21.2389 21.607 19.8705C22.907 18.4793 24.7886 18.0117 27.2517 18.4679Z" fill="white"/>
</svg>
